<svg xmlns="http://www.w3.org/2000/svg" viewBox="0 0 130 109" width="130" height="109"><style>tspan { white-space:pre }.shp0 { fill: #e6f1fa } .shp1 { fill: #407527 } .shp2 { fill: #405f94 } .shp3 { fill: #f4d2a1 } .shp4 { fill: #edb66e } .shp5 { fill: #ffffff } .shp6 { fill: #d4e8e8 } .shp7 { fill: #afb0b0 } .shp8 { fill: #f4d2a1;stroke: #edb66e;stroke-linecap:round;stroke-linejoin:round } .shp9 { fill: #cd9059 } .shp10 { fill: #595651 } .shp11 { fill: #756c43 } .shp12 { fill: #804927 } .shp13 { fill: #000000 } .shp14 { fill: #f9e1bd } .shp15 { fill: #522c13 } .shp16 { fill: #636261 } .shp17 { fill: #bc6e3c } .shp18 { fill: #ffffff;stroke: #afb0b0;stroke-linecap:round;stroke-linejoin:round } .shp19 { fill: #1b1b1b } .shp20 { fill: none;stroke: #522c13 } </style><g ><path fill-rule="evenodd" class="shp0" d="M64.3 9.8C93.2 9.8 116.6 33.2 116.6 62.1C116.6 66 116.2 69.7 115.4 73.3L13.2 73.3C12.4 69.7 12 65.9 12 62.1C12 33.2 35.4 9.8 64.3 9.8Z" /><g ><path fill-rule="evenodd" class="shp1" d="M24.3 88.8C24.3 89.7 23.6 90.4 22.7 90.4C21.8 90.4 21.1 89.7 21.1 88.8L21.1 82C21.1 81.1 21.8 80.4 22.7 80.4C23.6 80.4 24.3 81.1 24.3 82L24.3 82.2C26.2 78.7 29.6 81.3 27.6 83.9C25.4 83 24.3 84.1 24.3 86.4L24.3 88.8ZM12.5 81.8C13.4 80.9 14.5 80.5 16.2 80.5C17.3 80.5 18.3 80.8 19 81.4C20.3 82.5 20.6 84.8 19.1 85.9C18.4 86.4 17.6 86.6 16.6 86.6C15.6 86.6 14.8 86.5 14.2 86.2C14.2 86.7 14.4 87.1 14.9 87.4C15.4 87.7 16 87.8 16.7 87.8C17.6 87.8 18.4 87.5 18.9 87C19.9 87.4 20 88.8 19.2 89.5C18.9 89.8 18.4 90.1 17.9 90.2C17.4 90.3 16.9 90.4 16.3 90.4C14.7 90.4 13.5 90 12.6 89.2C10.7 87.5 10.7 83.6 12.5 81.8ZM16.1 84.9C17.2 84.9 17.6 83.8 16.9 83.3C15.4 82.2 12.2 84.9 16.1 84.9ZM55.3 81.8C56.2 80.9 57.4 80.5 59 80.5C60.1 80.5 61.1 80.8 61.8 81.4C63.1 82.5 63.4 84.8 61.9 85.9C61.2 86.4 60.4 86.6 59.4 86.6C58.4 86.6 57.6 86.5 57 86.2C57 86.7 57.2 87.1 57.7 87.4C58.2 87.7 58.8 87.8 59.5 87.8C60.4 87.8 61.2 87.5 61.7 87C62.7 87.4 62.8 88.8 62 89.5C61.7 89.8 61.2 90.1 60.7 90.2C60.2 90.3 59.7 90.4 59.1 90.4C57.5 90.4 56.3 90 55.4 89.2C53.5 87.5 53.5 83.6 55.3 81.8ZM58.9 84.9C60 84.9 60.5 83.8 59.7 83.3C58.2 82.2 55 84.9 58.9 84.9ZM1.3 89.9C-0.4 89.1 -0.6 87.1 1.3 86.7C2 87.5 4 87.9 5 87.9C5.4 87.9 5.8 87.8 6.1 87.6C6.4 87.4 6.5 87.2 6.5 86.9C6.5 86.6 6.4 86.4 6.1 86.2C4.8 85.4 3 85.8 1.4 84.4C0.6 83.7 0.3 82.8 0.3 81.8C0.4 77.8 5.5 76.9 8.4 78.3C9.9 79 10 80.9 8.6 81.6C7.6 81 5.3 80.3 4.3 81C4 81.2 3.9 81.4 3.9 81.7C3.9 82 4 82.2 4.2 82.3C4.4 82.5 4.7 82.6 5.2 82.7C7 83.1 8.2 83.6 8.9 84.2C10.6 85.6 10.2 88.2 8.5 89.5C7.6 90.2 6.3 90.6 4.7 90.6C3.5 90.6 2.5 90.4 1.7 90.1C1.6 90 1.4 90 1.3 89.9ZM46.2 81.7C46.8 81.2 47.4 80.8 48.1 80.6C49.3 80.2 51.2 80.3 52.2 81.1C53.6 82.2 53.3 84.1 51.4 84.1C51.1 83.6 50.5 83.3 49.8 83.3C47.1 83.3 47.2 87.6 49.8 87.6C50.6 87.6 51.2 87.4 51.6 86.9C53.3 87 53.7 88.8 52.2 89.8C51.6 90.2 50.7 90.4 49.7 90.4C48.4 90.5 47.2 90.1 46.2 89.2C44.2 87.5 44.3 83.5 46.2 81.7ZM43.5 82.1L43.5 88.9C43.5 89.8 42.8 90.5 41.9 90.5C41 90.5 40.3 89.8 40.3 88.9L40.3 82.1C40.3 81.2 41 80.5 41.9 80.5C42.8 80.5 43.5 81.2 43.5 82.1ZM43.5 78C43.5 78.9 42.8 79.6 41.9 79.6C41 79.6 40.3 78.9 40.3 78C40.3 77.1 41 76.4 41.9 76.4C42.8 76.4 43.5 77.1 43.5 78ZM34.3 87.2C35 85.4 35.4 83.7 35.9 81.9C36.5 79.6 39.7 80.1 39 82.8C38.5 85.1 37.2 90.4 34.3 90.4C31.3 90.4 30.1 85.1 29.6 82.8C29 80 32.1 79.6 32.7 81.9C33.2 83.7 33.6 85.4 34.3 87.2Z" /><path fill-rule="evenodd" class="shp2" d="M124.7 88.8C124.7 89.7 124 90.4 123.1 90.4C122.2 90.4 121.5 89.7 121.5 88.8L121.5 82C121.5 81.1 122.2 80.4 123.1 80.4C124 80.4 124.7 81.1 124.7 82L124.7 82.2C126.6 78.7 130 81.3 128 83.9C125.8 83 124.7 84.1 124.7 86.4L124.7 88.8ZM112.8 81.8C113.7 80.9 114.9 80.5 116.5 80.5C117.6 80.5 118.6 80.8 119.3 81.4C120.6 82.5 120.9 84.8 119.4 85.9C118.7 86.4 117.9 86.6 116.9 86.6C115.9 86.6 115.1 86.5 114.5 86.2C114.5 86.7 114.7 87.1 115.2 87.4C115.7 87.7 116.3 87.8 117 87.8C117.9 87.8 118.7 87.5 119.2 87C120.2 87.4 120.3 88.8 119.5 89.5C119.2 89.8 118.7 90.1 118.2 90.2C117.7 90.3 117.2 90.4 116.6 90.4C115 90.4 113.8 90 112.9 89.2C111 87.5 111 83.6 112.8 81.8ZM116.4 84.9C117.6 84.9 118 83.8 117.2 83.3C115.7 82.2 112.5 84.9 116.4 84.9ZM85 84C83.9 83.5 83.9 82.5 84.5 81.6C85.5 80.5 87.6 80.3 88.9 80.5C90.2 80.7 91.4 81.4 91.9 82.5C92.2 83.1 92.3 83.8 92.3 84.7C92.3 85 92.3 87.5 92.3 87.7C92.4 88.5 92.6 88.9 93 89.1C93 89.5 92.8 89.8 92.5 90.1C92.1 90.4 91.7 90.5 91.2 90.5C90.4 90.5 89.4 90 89.4 89.1C88.9 89.9 87.8 90.5 86.8 90.5C85.9 90.5 85.1 90.2 84.5 89.7C83.9 89.2 83.6 88.4 83.6 87.6C83.5 86.7 83.9 85.8 84.6 85.2C86.1 84.1 88.1 84.3 89.3 84.7L89.3 84.5C89.3 82.8 86 83.2 85 84ZM86.9 86.4C86.4 86.7 86.4 87.3 86.6 87.6C87.1 88.4 88.3 88.2 88.9 87.6C90.4 86.3 87.8 85.8 86.9 86.4ZM71.7 89.8C71.4 90.2 70.9 90.5 70.7 90.5C69.8 90.5 69 89.8 69 88.9C69 87.8 69 86.2 69 84.1C69 81.9 69 80.4 69 79.3C69 77.3 72.6 75.9 74.1 80.4C75 83.2 75.5 84.9 75.8 85.6C76 84.9 76.6 83.1 77.5 80.4C79 75.9 82.6 77.3 82.6 79.3C82.6 80.4 82.6 82 82.6 84.1C82.6 86.3 82.6 87.8 82.6 88.9C82.5 89.8 81.8 90.5 80.9 90.5C80.3 90.5 79.8 90.2 79.5 89.8C79.3 89.6 79.2 89.3 79.2 88.9L79.2 83.4L77.9 87.4C77.5 88.6 76.6 89.2 75.6 89.2C74.6 89.2 73.7 88.6 73.3 87.4L72 83.4L72 88.9C72 89.3 71.9 89.6 71.7 89.8ZM104.9 83.1L104.5 83.1C103.8 83.1 103.2 82.5 103.2 81.8C103.2 81.1 103.8 80.5 104.5 80.5L104.9 80.5L104.9 79.2C104.9 78.3 105.6 77.6 106.5 77.6C107.4 77.6 108.1 78.3 108.1 79.2L108.1 80.5L109.6 80.5C110.3 80.5 110.9 81.1 110.9 81.8C110.9 82.5 110.3 83.1 109.6 83.1L108.1 83.1L108.1 86.3C108.1 87.8 109.4 88 110.5 87.3C111.3 89.4 109.6 90.4 108 90.4C107 90.4 106.2 90.1 105.7 89.5C105.2 88.9 104.9 88 104.9 86.9L104.9 83.1ZM94.1 88.9C93.7 88.1 93.8 87.3 94.7 87C94.9 87.2 95.2 87.4 95.7 87.6C96.3 87.8 98 88.1 98.6 87.6C98.9 87.3 98.9 87 98.6 86.8C98.3 86.6 97.5 86.5 97.3 86.4C93.4 85.5 93.5 82.6 95.5 81.2C96.9 80.3 99.4 80 100.9 80.9C102.1 81.6 102.2 83 101 83.6C100.3 83.1 98.9 82.9 98.1 83.2C97.6 83.4 97.5 83.9 98.1 84.1C98.7 84.3 99.6 84.4 99.8 84.5C100.7 84.8 101.4 85.2 101.9 85.8C102.3 86.4 102.4 87.2 102.2 87.9C101.8 89.8 99.8 90.5 98.1 90.5C96.9 90.5 95 90.3 94.1 88.9Z" /></g><path fill-rule="evenodd" class="shp2" d="M16.4 95.8C16.2 95.8 16.1 95.7 16.1 95.5C16.1 95.3 16.2 95.2 16.4 95.2L112.1 95.2C112.3 95.2 112.4 95.3 112.4 95.5C112.4 95.7 112.3 95.8 112.1 95.8L16.4 95.8Z" /><path class="shp3" d="M53.2 40.9L53.2 40.9L53.2 83L53.2 83L53.2 40.9Z" /><path fill-rule="evenodd" class="shp4" d="M53.2 40.6L53.2 40.6L53.2 41.2L53.2 41.2L53.2 40.6ZM53.2 82.9L53.2 82.9L53.2 82.3L53.2 82.3L53.2 82.9Z" /><g ><path fill-rule="evenodd" class="shp3" d="M49.1 40.9C61.4 40.9 71.7 54.8 74.4 73.4L49.1 73.4L49.1 40.9Z" /><path fill-rule="evenodd" class="shp4" d="M49.1 40.6L49.1 40.6C56.2 40.6 62.7 45.2 67.4 52.5C70.9 58.1 73.5 65.2 74.7 73.3L74.1 73.3C72.9 65.4 70.4 58.3 66.9 52.8C62.3 45.6 56 41.1 49.1 41.1L49.1 41.1L49.1 40.6L49.1 40.6Z" /><path fill-rule="evenodd" class="shp4" d="M71.7 73.3C71 66.3 69.3 59.1 66.1 53C64.9 50.7 63.5 48.5 61.7 46.5L61.7 46.5L61.7 46.5L61.5 46.3L61.5 46.3L61.5 46.3L61.4 46.2L61.4 46.2L61.3 46.1L61.3 46.1L61.3 46.1L61.2 46L61.2 46L61.1 45.9L61.1 45.9L61.1 45.9L61 45.8L61 45.8L60.9 45.7L60.9 45.7L60.8 45.6L60.8 45.6L60.8 45.6L60.7 45.5L60.7 45.5L60.7 45.5L60.6 45.4L60.6 45.4L60.6 45.4L60.5 45.3L60.5 45.3L60.5 45.3L60.4 45.2L60.4 45.2L60.3 45.1L60.3 45.1C59.6 44.5 58.9 43.9 58.2 43.3C55.5 41.7 52.5 40.9 49.4 40.9L49.4 40.9L49.4 40.9L49.4 73.6L71.7 73.6L71.7 73.3Z" /><path fill-rule="evenodd" class="shp5" d="M72.3 60.7C67.5 48.8 58.9 40.9 49.1 40.9L49.1 40.9L49.1 70L49.1 70L72.3 60.7Z" /><path fill-rule="evenodd" class="shp6" d="M49.1 40.9L49.1 40.9L49.1 40.9L49.1 70L49.1 70L69.5 61.8C66.8 52.5 60.1 40.9 49.1 40.9Z" /><path fill-rule="evenodd" class="shp7" d="M72 60.6C69.6 54.7 66.2 49.8 62.2 46.4C58.3 43.1 53.9 41.2 49.1 41.2L49.1 41.2L49.1 40.6L49.1 40.6C54 40.6 58.6 42.5 62.5 45.9C66.6 49.4 70.1 54.5 72.5 60.6C72.6 60.7 72.5 60.9 72.3 61L49.1 70.3L49 70.3L49 69.7L49 69.7L72 60.6Z" /></g><path fill-rule="evenodd" class="shp8" d="M22.9 62.6L42.8 51.1C44.6 50.1 45.2 47.8 44.2 46L44.2 46C43.2 44.2 40.9 43.6 39.1 44.6L22.4 54.2L18.1 46.8L12 40.2L5.6 44.1L8 48.3L8 48.3L8 48.3C8.7 49.6 10.1 50.2 11.5 50.2L17.8 61.2C18.8 63 21.1 63.6 22.9 62.6Z" /><path fill-rule="evenodd" class="shp4" d="M7.8 46.5C7.7 46.4 7.8 46.2 7.9 46.1C8 46 8.2 46.1 8.3 46.2L8.8 47C8.8 47 8.8 47 8.9 47.1L9.2 47.7C9.4 48.1 9.8 48.4 10.1 48.6C10.5 48.8 11 48.9 11.4 48.9L12.1 48.9C12.2 48.9 12.3 49 12.4 49.1L19 60.6C19.3 61.2 19.8 61.5 20.4 61.7C21 61.9 21.6 61.8 22.2 61.5L23.2 61L29.7 57.2C29.8 57.1 30 57.2 30.1 57.3C30.2 57.4 30.1 57.6 30 57.7L23.5 61.5L23.5 61.5L22.5 62C21.8 62.4 21 62.5 20.3 62.3C19.6 62.1 19 61.6 18.6 61L12 49.6L11.5 49.6C10.9 49.6 10.4 49.5 9.9 49.2C9.4 48.9 9 48.6 8.7 48.1L8.4 47.6C8.4 47.6 8.4 47.6 8.3 47.5L7.8 46.5Z" /><path fill-rule="evenodd" class="shp4" d="M11.5 50.3L17.8 61.3C18.8 63.1 21.1 63.7 22.9 62.7L22.9 62.7L22.9 62.7L28.6 59.4L28 58.4L23.3 61.1L23.3 61.1L22.3 61.7C21.1 62.4 19.5 62 18.7 60.7L12.1 49.2L11.4 49.2C10.4 49.2 9.4 48.7 8.9 47.9L8.6 47.3L8.6 47.3L8.4 47L7.9 47.3C7.7 47.4 7.6 47.5 7.4 47.5L7.9 48.4L7.9 48.4C8.7 49.6 10.1 50.3 11.5 50.3Z" /><path fill-rule="evenodd" class="shp9" d="M52.8 19.8C52.8 19.6 52.9 19.5 53.1 19.5C53.3 19.5 53.4 19.6 53.4 19.8L53.4 22.6C53.4 23.8 52.9 24.8 52.2 25.6C51.4 26.4 50.4 26.8 49.2 26.8C48 26.8 47 26.3 46.2 25.6C45.4 24.8 45 23.8 45 22.6L45 19.8C45 19.6 45.1 19.5 45.3 19.5C45.5 19.5 45.6 19.6 45.6 19.8L45.6 22.6C45.6 23.6 46 24.5 46.7 25.2C47.4 25.9 48.3 26.3 49.3 26.3C50.3 26.3 51.2 25.9 51.9 25.2C52.6 24.5 53 23.6 53 22.6L53 19.8L52.8 19.8Z" /><path fill-rule="evenodd" class="shp5" d="M24.3 51.9L29.1 60.3L42.3 52.7C44.6 51.4 45.4 48.4 44.1 46.1L44.1 46.1C42.8 43.8 39.8 43 37.5 44.3L24.3 51.9Z" /><path fill-rule="evenodd" class="shp6" d="M27.9 58.1L29.1 60.2L42.3 52.6C43.9 51.7 44.7 50.1 44.7 48.4C44.7 47.6 44.5 46.8 44.1 46C44.8 47.1 44.4 48.6 43.2 49.2L27.9 58.1Z" /><path fill-rule="evenodd" class="shp7" d="M28.9 60.4L24.1 52.1C24 52 24.1 51.8 24.2 51.7L37.4 44.1C39 43.2 41.1 42.2 43.3 41.6C45.2 41 47.2 40.7 49.1 40.7C49.5 40.7 49.8 40.8 50 41C50.4 41.4 50.5 42 50.3 42.7C50.1 43.4 49.7 44.2 49.2 45.1C47.4 48.2 43.8 52.2 42.5 53L29.3 60.6C29.1 60.6 29 60.5 28.9 60.4ZM29.2 59.9L42.2 52.4C43.5 51.6 46.9 47.8 48.7 44.7C49.2 43.9 49.6 43.1 49.7 42.4C49.8 41.9 49.8 41.4 49.6 41.2C49.5 41.1 49.3 41 49 41C47.2 41 45.2 41.3 43.4 41.9C41.2 42.5 39.2 43.4 37.6 44.4L24.7 52L29.2 59.9Z" /><path class="shp4" d="M45.8 35.2L52.4 35.2L52.4 52.6L45.8 52.6L45.8 35.2Z" /><path fill-rule="evenodd" class="shp6" d="M69.6 73.3C68.1 54.9 59.5 40.8 49.1 40.8C38.7 40.8 30.1 54.9 28.6 73.3L69.6 73.3Z" /><path fill-rule="evenodd" class="shp7" d="M69.3 73.3C68.6 65.1 66.5 57.7 63.5 52.1C59.8 45.3 54.7 41.1 49.1 41.1C43.5 41.1 38.4 45.3 34.7 52.1C31.6 57.7 29.5 65.1 28.9 73.3L28.3 73.3C29 65 31.1 57.5 34.2 51.8C38 44.8 43.3 40.5 49.1 40.5C54.9 40.5 60.2 44.8 64 51.8C67.1 57.5 69.2 64.9 69.9 73.3L69.3 73.3Z" /><path fill-rule="evenodd" class="shp5" d="M68.4 66.3C65.4 52.2 57.9 42.2 49.1 42.2C40.3 42.2 32.9 52.2 29.8 66.3C29.4 68.5 29.1 70.9 28.9 73.3L69.3 73.3C69.1 70.9 68.8 68.6 68.4 66.3Z" /><path fill-rule="evenodd" class="shp10" d="M30.3 73.3L41.1 42.1C41.9 41.7 42.8 41.4 43.7 41.1L43.7 52.4L54.5 52.4L54.5 41.1C55.4 41.4 56.3 41.7 57.1 42.1L57.2 42.5C57.3 42.6 57.4 42.6 57.5 42.7L68.1 73.4L67.8 73.4L67.5 73.4L30.3 73.4L30.3 73.3Z" /><path fill-rule="evenodd" class="shp11" d="M30 73.3L40.8 42C40.8 41.9 40.9 41.9 41 41.8C41.4 41.6 41.9 41.4 42.3 41.3C42.7 41.1 43.2 41 43.6 40.8C43.7 40.8 43.9 40.8 43.9 41L43.9 41.1L43.9 41.1L43.9 52.1L54.2 52.1L54.2 41.1C54.2 40.9 54.3 40.8 54.5 40.8L54.6 40.8C55 40.9 55.5 41.1 55.9 41.2C56.3 41.4 56.8 41.6 57.2 41.7C57.3 41.7 57.3 41.8 57.3 41.9L57.3 41.9L68.1 73.2L68.1 73.2L57.5 42.5C57.3 42.4 57 42.3 56.8 42.2L56.8 42.2C56.4 42 56 41.9 55.6 41.7C55.3 41.6 55 41.5 54.6 41.4L54.6 52.3L54.6 52.3C54.6 52.5 54.5 52.6 54.3 52.6L43.5 52.6L43.5 52.6C43.3 52.6 43.2 52.5 43.2 52.3L43.2 41.4C42.9 41.5 42.6 41.6 42.2 41.7C41.8 41.8 41.4 42 41 42.2L30.3 73.2L30 73.2L30 73.3Z" /><path fill-rule="evenodd" class="shp12" d="M49.1 2.6C57.4 2.6 64.2 9.4 64.2 17.7L64.2 23.3L34 23.3L34 17.7C34 9.4 40.8 2.6 49.1 2.6Z" /><path class="shp8" d="M34.8 27.7C32.53 27.7 30.7 25.87 30.7 23.6C30.7 21.33 32.53 19.5 34.8 19.5C37.07 19.5 38.9 21.33 38.9 23.6C38.9 25.87 37.07 27.7 34.8 27.7Z" /><path class="shp8" d="M63.4 27.7C61.13 27.7 59.3 25.87 59.3 23.6C59.3 21.33 61.13 19.5 63.4 19.5C65.67 19.5 67.5 21.33 67.5 23.6C67.5 25.87 65.67 27.7 63.4 27.7Z" /><path class="shp3" d="M34.8 27.7C32.53 27.7 30.7 25.87 30.7 23.6C30.7 21.33 32.53 19.5 34.8 19.5C37.07 19.5 38.9 21.33 38.9 23.6C38.9 25.87 37.07 27.7 34.8 27.7Z" /><path fill-rule="evenodd" class="shp4" d="M37.9 20.5C38.7 21.3 39.2 22.4 39.2 23.6C39.2 24.8 38.7 25.9 37.9 26.7C37.1 27.5 36 28 34.8 28C33.6 28 32.5 27.5 31.7 26.7C30.9 25.9 30.4 24.8 30.4 23.6C30.4 22.4 30.9 21.3 31.7 20.5C32.5 19.7 33.6 19.2 34.8 19.2C36 19.2 37.1 19.7 37.9 20.5ZM34.8 19.8C33.7 19.8 32.8 20.2 32.1 20.9C31.4 21.6 31 22.5 31 23.6C31 24.7 31.4 25.6 32.1 26.3C32.8 27 33.7 27.4 34.8 27.4C35.9 27.4 36.8 27 37.5 26.3C38.2 25.6 38.6 24.7 38.6 23.6C38.6 22.5 38.2 21.6 37.5 20.9C36.8 20.2 35.9 19.8 34.8 19.8Z" /><path class="shp3" d="M63.4 27.7C61.13 27.7 59.3 25.87 59.3 23.6C59.3 21.33 61.13 19.5 63.4 19.5C65.67 19.5 67.5 21.33 67.5 23.6C67.5 25.87 65.67 27.7 63.4 27.7Z" /><path fill-rule="evenodd" class="shp4" d="M66.5 20.5C67.3 21.3 67.8 22.4 67.8 23.6C67.8 24.8 67.3 25.9 66.5 26.7C65.7 27.5 64.6 28 63.4 28C62.2 28 61.1 27.5 60.3 26.7C59.5 25.9 59 24.8 59 23.6C59 22.4 59.5 21.3 60.3 20.5C61.1 19.7 62.2 19.2 63.4 19.2C64.6 19.2 65.7 19.7 66.5 20.5ZM63.4 19.8C62.3 19.8 61.4 20.2 60.7 20.9C60 21.6 59.6 22.5 59.6 23.6C59.6 24.7 60 25.6 60.7 26.3C61.4 27 62.3 27.4 63.4 27.4C64.5 27.4 65.4 27 66.1 26.3C66.8 25.6 67.2 24.7 67.2 23.6C67.2 22.5 66.8 21.6 66.1 20.9C65.4 20.2 64.5 19.8 63.4 19.8Z" /><path fill-rule="evenodd" class="shp4" d="M34.8 19.5C37.1 19.5 38.9 21.3 38.9 23.6C38.9 25.9 37.1 27.7 34.8 27.7C34.4 27.7 34.1 27.6 33.7 27.6C33.7 27.5 33.7 27.3 33.7 27.2L33.7 19.7C34.1 19.5 34.4 19.5 34.8 19.5Z" /><path fill-rule="evenodd" class="shp4" d="M63.4 19.5C63.8 19.5 64.2 19.6 64.5 19.7L64.5 27.2C64.5 27.3 64.5 27.5 64.5 27.6C64.2 27.7 63.8 27.7 63.4 27.7C61.1 27.7 59.3 25.9 59.3 23.6C59.3 21.3 61.2 19.5 63.4 19.5Z" /><path fill-rule="evenodd" class="shp3" d="M49.1 3.4L49.1 3.4C57 3.4 63.4 9.8 63.4 17.7L63.4 27.1C63.4 35 57 41.4 49.1 41.4L49.1 41.4C41.2 41.4 34.8 35 34.8 27.1L34.8 17.7C34.8 9.9 41.3 3.4 49.1 3.4Z" /><path fill-rule="evenodd" class="shp4" d="M56.8 5.7C57.8 6.3 58.7 7.1 59.5 7.9C59.1 8.2 58.6 8.5 57.8 8.8C48.4 12.7 43.5 6.9 43.5 6.9L43.8 4.8C43.8 4.8 52.1 4.9 56.8 5.7Z" /><path fill-rule="evenodd" class="shp9" d="M52.4 22.6C52.4 22.5 52.5 22.4 52.6 22.4C52.7 22.4 52.8 22.5 52.8 22.6L52.8 24.5C52.8 25.3 52.4 26.1 51.7 26.6C51 27.1 50.1 27.5 49 27.5C48 27.5 47 27.2 46.3 26.6C45.6 26.1 45.2 25.3 45.2 24.5L45.2 22.6C45.2 22.5 45.3 22.4 45.4 22.4C45.5 22.4 45.6 22.5 45.6 22.6L45.6 24.5C45.6 25.2 46 25.9 46.6 26.3C47.2 26.8 48 27.1 48.9 27.1C49.8 27.1 50.6 26.8 51.2 26.3C51.8 25.8 52.2 25.2 52.2 24.5L52.2 22.6L52.4 22.6Z" /><path fill-rule="evenodd" class="shp9" d="M55.4 27.5C55.5 27.4 55.6 27.3 55.8 27.4C55.9 27.5 56 27.6 55.9 27.8C55.3 29 54.3 30.1 53.1 30.8C51.9 31.5 50.6 31.9 49.1 31.9C47.6 31.9 46.3 31.5 45.1 30.8C43.9 30.1 42.9 29 42.3 27.8C42.2 27.7 42.3 27.5 42.4 27.4C42.5 27.3 42.7 27.4 42.8 27.5C43.4 28.7 44.3 29.6 45.4 30.3C46.5 31 47.7 31.3 49.1 31.3C50.4 31.3 51.7 30.9 52.8 30.3C53.9 29.7 54.8 28.7 55.4 27.5Z" /><path class="shp13" d="M42.6 21.3C41.77 21.3 41.1 20.63 41.1 19.8C41.1 18.97 41.77 18.3 42.6 18.3C43.43 18.3 44.1 18.97 44.1 19.8C44.1 20.63 43.43 21.3 42.6 21.3Z" /><path class="shp13" d="M55.6 21.3C54.77 21.3 54.1 20.63 54.1 19.8C54.1 18.97 54.77 18.3 55.6 18.3C56.43 18.3 57.1 18.97 57.1 19.8C57.1 20.63 56.43 21.3 55.6 21.3Z" /><path class="shp5" d="M55.6 20.1C55.27 20.1 55 19.83 55 19.5C55 19.17 55.27 18.9 55.6 18.9C55.93 18.9 56.2 19.17 56.2 19.5C56.2 19.83 55.93 20.1 55.6 20.1Z" /><path class="shp5" d="M42.6 20.1C42.27 20.1 42 19.83 42 19.5C42 19.17 42.27 18.9 42.6 18.9C42.93 18.9 43.2 19.17 43.2 19.5C43.2 19.83 42.93 20.1 42.6 20.1Z" /><path fill-rule="evenodd" class="shp4" d="M49.1 39.5C45.1 39.5 41.5 37.9 39 35.3L39 35.3C37 33.3 35.6 30.6 35.1 27.7C35 27 34.9 26.2 34.9 25.4L34.9 25.4L34.9 27.7C35.2 35.3 41.5 41.5 49.2 41.5C56.9 41.5 63.2 35.4 63.5 27.7L63.5 25.4C63.5 26.2 63.4 26.9 63.3 27.7C62.8 30.7 61.4 33.3 59.3 35.4C56.7 37.9 53.1 39.5 49.1 39.5C49.2 39.5 49.1 39.5 49.1 39.5Z" /><path fill-rule="evenodd" class="shp14" d="M49.1 5.3C45.1 5.3 41.5 6.9 39 9.5L39 9.5C37 11.5 35.6 14.2 35.1 17.1C35 17.8 34.9 18.6 34.9 19.4L34.9 19.4L34.9 17.1C35.2 9.5 41.5 3.3 49.2 3.3C56.9 3.3 63.2 9.4 63.5 17.1L63.5 19.4C63.5 18.6 63.4 17.9 63.3 17.1C62.8 14.1 61.4 11.5 59.3 9.4C56.7 7 53.1 5.3 49.1 5.3C49.2 5.3 49.1 5.3 49.1 5.3Z" /><path fill-rule="evenodd" class="shp4" d="M59.4 7.5C62 10.1 63.7 13.8 63.7 17.8L63.7 27.2C63.7 31.2 62.1 34.9 59.4 37.5C56.8 40.1 53.1 41.8 49.1 41.8C45.1 41.8 41.4 40.2 38.8 37.5C36.2 34.9 34.5 31.2 34.5 27.2L34.5 17.8C34.5 13.8 36.1 10.1 38.8 7.5C41.5 4.8 45.1 3.2 49.1 3.2C53.1 3.2 56.8 4.8 59.4 7.5ZM49.1 3.7C45.2 3.7 41.7 5.3 39.2 7.8C36.7 10.3 35.1 13.8 35.1 17.7L35.1 27.1C35.1 31 36.7 34.5 39.2 37C41.7 39.5 45.2 41.1 49.1 41.1C53 41.1 56.5 39.5 59 37C61.5 34.5 63.1 31 63.1 27.1L63.1 17.7C63.1 13.8 61.5 10.3 59 7.8C56.5 5.3 53 3.7 49.1 3.7Z" /><path fill-rule="evenodd" class="shp12" d="M62.7 12.5C63.3 14.1 63.7 15.9 63.7 17.7L63.7 20.7L63.7 20.7L63.7 21.9L63.7 23.1C63.7 23.3 63.6 23.4 63.4 23.4C63.2 23.4 63.1 23.3 63.1 23.1L63.1 21.9L63.1 20.7L63.1 20.7C63.1 14.7 60.4 9.5 54.7 6.9C53.8 8 51.6 8.7 49.1 8.7C46.6 8.7 44.4 7.9 43.5 6.9C37.8 9.5 35.1 14.7 35.1 20.7L35.1 20.7L35.1 21.9L35.1 23.1C35.1 23.3 35 23.4 34.8 23.4C34.6 23.4 34.5 23.3 34.5 23.1L34.5 21.9L34.5 20.7L34.5 20.7L34.5 17.7C34.5 15.9 34.8 14.1 35.5 12.5C37.4 6.8 42.8 2.6 49.1 2.6C55.5 2.6 60.9 6.8 62.7 12.5Z" /><path fill-rule="evenodd" class="shp12" d="M60.2 0.6C60.5 4.7 56.3 4.4 55.8 4.4C56.5 4 57 3.4 57.1 1.3C56.6 2.6 55.3 3.3 54.4 3.8C52.3 6.9 47 6.8 43.4 6.9C46.8 10.3 54.6 10.2 58.2 7.1C60.5 4.9 60.3 4.3 60.2 0.6Z" /><path fill-rule="evenodd" class="shp15" d="M57.1 1.4C56.8 2.9 55.8 3.8 54.9 5.2C55.8 5.3 57 5.1 57.8 4.7C61.1 3.2 57.3 9.5 51.1 9.5C53.8 9.5 56.5 8.8 58.4 7.2C60.4 5 61.1 3.9 60.4 0.5C59.1 2.4 58 3.4 56.6 4.4C57 3.5 57.3 2.7 57.1 1.4Z" /><path fill-rule="evenodd" class="shp4" d="M14.6 45C14.9 44.4 15.4 43.8 16.1 43C16.3 42.8 16.5 42.5 16.6 42.3L15.9 42.7L8.5 47L8.7 47.3L8.7 47.3L9 47.9C9.1 48 9.1 48.1 9.2 48.2L14.6 45Z" /><path class="shp16" d="M9.7 44.7L9.7 44.7L9.7 44.7L9.7 44.7Z" /><path fill-rule="evenodd" class="shp4" d="M9.4 45C9.3 45.1 9.1 45 9 44.9L8.4 43.8C8.3 43.7 8.4 43.5 8.5 43.4C8.6 43.3 8.8 43.4 8.9 43.5L9.5 44.6C9.6 44.7 9.5 44.9 9.4 45ZM13.1 39.6C13.2 39.5 13.4 39.6 13.5 39.7L14 40.5C14.1 40.6 14 40.8 13.9 40.9C13.8 41 13.6 40.9 13.5 40.8L13 40C12.9 39.9 13 39.7 13.1 39.6ZM10.5 41.5C10.4 41.4 10.5 41.2 10.6 41.1C10.7 41 10.9 41.1 11 41.2L11.5 42C11.6 42.1 11.5 42.3 11.4 42.4C11.3 42.5 11.1 42.4 11 42.3L10.5 41.5Z" /><path fill-rule="evenodd" class="shp8" d="M17.6 47.3L13.2 49.8C11.4 50.8 9 50.2 8 48.4L6.1 45.1L3.6 40.8C3.2 40.1 3.4 39.2 4.1 38.8C4.8 38.4 5.7 38.6 6.1 39.3L5 37.4C4.6 36.7 4.8 35.8 5.5 35.4C6.2 35 7.1 35.2 7.5 35.9L7.1 35.3C6.7 34.6 6.9 33.7 7.6 33.3C8.3 32.9 9.2 33.1 9.6 33.8L10 34.4C9.6 33.7 9.8 32.8 10.5 32.4C11.2 32 12.1 32.2 12.5 32.9L16.1 39.2L17.1 40.9C17.5 39.9 17.8 38.8 18.2 37.9C19.1 35.6 22 36.5 21.6 37.5C19.5 40.8 20.3 42.2 19.5 44.9L19.5 44.9L19.5 44.9L19.5 44.9L19.5 44.9L19.5 44.9L19.5 44.9L19.5 44.9L19.5 44.9L19.5 44.9L19.5 44.9L19.5 44.9L19.5 44.9L19.5 44.9L19.5 44.9L19.5 44.9L19.5 44.9L19.5 44.9L19.5 44.9L19.5 44.9L19.5 44.9L19.5 44.9L19.5 44.9L19.5 44.9L19.5 44.9L19.5 44.9L19.5 44.9L19.5 44.9L19.5 44.9L19.5 44.9L19.5 44.9L19.5 44.9L19.5 44.9L19.5 44.9L19.5 44.9L19.5 44.9L19.5 44.9L19.5 44.9L19.5 44.9L19.5 44.9L19.5 44.9L19.5 44.9L19.5 44.9L19.5 44.9L19.5 44.9L19.5 44.9L19.5 44.9L19.5 44.9L19.5 44.9L19.5 44.9L19.5 45L19.5 45L19.5 45L19.5 45L19.5 45L19.5 45.1L19.5 45.1L19.5 45.1L19.5 45.1L19.5 45.1L19.5 45.1L19.5 45.1L19.5 45.1L19.5 45.1L19.5 45.1L19.5 45.1L19.5 45.1L19.5 45.1L19.5 45.1L19.5 45.1L19.5 45.1L19.5 45.1L19.5 45.1L19.5 45.1L19.4 45.2L19.4 45.2L19.4 45.2L19.3 45.3L19.3 45.3L19.3 45.3C19.2 45.4 19.2 45.4 19.1 45.5L19.1 45.5L19.1 45.5L19.1 45.5L19.1 45.5C18 47 17.8 47.1 17.6 47.3Z" /><path fill-rule="evenodd" class="shp4" d="M5.9 39.4C5.8 39.3 5.9 39.1 6 39C6.1 38.9 6.3 39 6.4 39.1L8.9 43.4C9 43.5 8.9 43.7 8.8 43.8C8.7 43.9 8.5 43.8 8.4 43.7L5.9 39.4Z" /><path fill-rule="evenodd" class="shp4" d="M7.3 36C7.2 35.9 7.3 35.7 7.4 35.6C7.5 35.5 7.7 35.6 7.8 35.7L11.4 41.9C11.5 42 11.4 42.2 11.3 42.3C11.2 42.4 11 42.3 10.9 42.2L7.3 36Z" /><path fill-rule="evenodd" class="shp4" d="M9.9 34.6C9.8 34.5 9.9 34.3 10 34.2C10.1 34.1 10.3 34.2 10.4 34.3L14 40.5C14.1 40.6 14 40.8 13.9 40.9C13.8 41 13.6 40.9 13.5 40.8L9.9 34.6Z" /><path fill-rule="evenodd" class="shp4" d="M7.5 44.6C7.4 44.7 7.2 44.6 7.1 44.5C7 44.4 7.1 44.2 7.2 44.1L14.9 39.7C15 39.6 15.2 39.7 15.3 39.8C15.4 39.9 15.3 40.1 15.2 40.2L7.5 44.6Z" /><g ><g ><path class="shp3" d="M76.1 73.3L77.7 66.6L79.9 67.5L78.5 73.3L76.1 73.3Z" /><path fill-rule="evenodd" class="shp4" d="M75.8 73.3L77.5 66.5C77.5 66.4 77.7 66.3 77.8 66.3L77.8 66.3L80 67.2C80.1 67.3 80.2 67.4 80.2 67.5L78.8 73.3L78.2 73.3L79.6 67.6L77.9 66.9L76.3 73.2L75.8 73.2L75.8 73.3Z" /><path fill-rule="evenodd" class="shp5" d="M77 66.3C80.4 55.8 85.3 45.4 89.5 45.4L89.5 71.3L77 66.3Z" /><path fill-rule="evenodd" class="shp6" d="M84.1 50C82 53.7 80.1 59.6 78.7 66.9L79.8 67.3C80.7 59.3 82.5 52.8 84.8 49L84.7 48.9C84.5 49.3 84.3 49.7 84.1 50Z" /><path fill-rule="evenodd" class="shp7" d="M76.7 66.2C78.5 60.5 80.8 54.7 83.2 50.7C85.2 47.3 87.4 45.1 89.4 45.1L89.4 45.7C87.6 45.7 85.6 47.8 83.6 51C81.3 54.9 79 60.5 77.2 66.1L89.4 71L89.4 71.6L89.4 71.6L76.8 66.6C76.7 66.5 76.7 66.4 76.7 66.2Z" /></g><path fill-rule="evenodd" class="shp8" d="M109.6 63.8C109.6 63.8 109.6 63.9 109.6 63.8L109.6 63.8L109.5 63.9L109.5 63.9L109.5 63.9L109.5 63.9L109.5 63.9L109.5 63.9L109.5 63.9L109.5 63.9L109.5 63.9L109.5 63.9L109.5 63.9L109.5 63.9L109.5 63.9C109.5 63.9 109.4 63.9 109.4 64L109.4 64C109.4 64 109.3 64 109.3 64.1L109.3 64.1C108.9 64.3 108.4 64.2 108.1 63.9L108.1 63.9L104 60.6L106.5 60.6L106.5 59.6L108.7 61.4L117.3 50.9L116.9 50.5C115.7 49.3 116.9 47 115.7 44.9C117.1 44.1 117.9 45.7 118 48.1L121.7 43.7C121.9 43.4 122.4 43.4 122.7 43.7C123 43.9 123.1 44.4 122.8 44.6L123.2 44.1C123.4 43.8 123.9 43.8 124.2 44.1C124.5 44.3 124.6 44.8 124.3 45L123.9 45.5C124.1 45.2 124.5 45.2 124.8 45.5C125.1 45.7 125.2 46.2 124.9 46.4L124.1 47.4C124.3 47.1 124.7 47.1 125 47.4C125.3 47.6 125.4 48.1 125.1 48.3L123.3 50.4L123.3 50.4L121.7 52.4C121.1 53.1 119.8 53 119 52.4L119 52.4L109.6 63.8Z" /><path fill-rule="evenodd" class="shp5" d="M90.2 47.9L90.2 47.9C89.6 48.6 89.7 49.7 90.4 50.3L105.2 62.5L107.4 59.8L92.6 47.6C91.9 47.1 90.8 47.2 90.2 47.9Z" /><path fill-rule="evenodd" class="shp6" d="M92.4 50.9L105.8 61.9L105.8 61.9L105.8 61.9L105.3 62.5L90.5 50.3C90 49.9 89.8 49.3 89.9 48.7L92.4 50.9Z" /><path fill-rule="evenodd" class="shp7" d="M89.5 49.2C89.5 48.7 89.6 48.2 89.9 47.7C90.2 47.3 90.7 47 91.2 47C91.7 47 92.2 47.1 92.7 47.4L107.5 59.6C107.6 59.7 107.6 59.9 107.5 60L105.3 62.7C105.2 62.8 105 62.8 104.9 62.7L90.1 50.5C89.8 50.2 89.6 49.7 89.5 49.2ZM90.1 49.2C90.1 49.6 90.3 49.9 90.6 50.2L105.2 62.2L107 60L92.4 48C92.1 47.7 91.7 47.6 91.3 47.7C91 47.6 90.6 47.8 90.4 48.1C90.1 48.4 90 48.8 90.1 49.2Z" /><path class="shp4" d="M88.4 41L90.6 41L90.6 46.8L88.4 46.8L88.4 41Z" /><path fill-rule="evenodd" class="shp15" d="M94.4 23.9C100.1 16.6 110.8 20.1 111.8 28.3C112.9 37.1 102.8 41.1 108.5 46.9C106.9 46.8 105.6 45.8 105.4 45.3C104.9 46.7 105.6 49.4 107.6 50.7C88.7 48.2 103.9 25.5 94.4 23.9Z" /><path fill-rule="evenodd" class="shp12" d="M94.4 23.9C100.1 16.6 110.8 20.1 111.8 28.3C112.9 37.1 104.5 38.6 105.9 44.5C104.8 43.7 104.2 42 104.3 41.1C103.4 42 102.9 45.8 103.7 47.2C94.4 41.6 105.1 26.2 94.4 23.9Z" /><path fill-rule="evenodd" class="shp17" d="M94.2 23.7C94.1 23.8 94.1 24 94.2 24.1C94.3 24.2 94.5 24.2 94.6 24.1C96.4 21.8 98.7 20.6 101 20.3C102.3 20.1 103.5 20.2 104.7 20.6C105.9 20.9 107 21.5 108 22.3C112 25.4 112.7 30.2 110.7 34.5L110.7 34.5C112.8 30 112.5 25.1 108.3 21.8C107.3 21 106.1 20.4 104.8 20C103.5 19.6 102.2 19.5 100.8 19.7C98.5 20 96.1 21.3 94.2 23.7Z" /><path fill-rule="evenodd" class="shp12" d="M99.3 5.5C122.8 11.8 103.7 46 89.5 42.2C75.3 38.4 75.8 -0.8 99.3 5.5Z" /><path class="shp3" d="M82.5 29.6C80.95 29.6 79.7 28.35 79.7 26.8C79.7 25.25 80.95 24 82.5 24C84.05 24 85.3 25.25 85.3 26.8C85.3 28.35 84.05 29.6 82.5 29.6Z" /><path class="shp3" d="M103.2 35.1C101.65 35.1 100.4 33.85 100.4 32.3C100.4 30.75 101.65 29.5 103.2 29.5C104.75 29.5 106 30.75 106 32.3C106 33.85 104.75 35.1 103.2 35.1Z" /><path fill-rule="evenodd" class="shp4" d="M83.2 24.1C84.7 24.5 85.5 26 85.2 27.5C84.8 29 83.3 29.8 81.8 29.5C81.4 29.4 81.1 29.2 80.8 29L80.8 28.9L82.1 24.1C82.5 24 82.9 24 83.2 24.1Z" /><path fill-rule="evenodd" class="shp4" d="M104 29.6C104.4 29.7 104.7 29.9 105 30.1L103.7 34.9L103.7 35C103.3 35.1 103 35 102.6 34.9C101.1 34.5 100.3 33 100.6 31.5C101 30.1 102.5 29.3 104 29.6Z" /><path fill-rule="evenodd" class="shp3" d="M98.5 8.7L98.5 8.7C104.2 10.2 107.6 16.1 106.1 21.8L102.7 34.6C101.2 40.3 95.3 43.7 89.6 42.2L89.6 42.2C83.9 40.7 80.5 34.8 82 29.1L85.4 16.3C86.9 10.6 92.8 7.2 98.5 8.7Z" /><path fill-rule="evenodd" class="shp12" d="M83.4 23.6C84.9 17.9 90.8 14.5 96.5 16C102.2 17.5 105.6 23.4 104.1 29.1L107.5 30C112.3 20.7 112.2 9 99.4 5.5C88.1 2.5 82.1 10 80.5 19C80.3 20.2 80.2 21.4 80.1 22.7L83.4 23.6Z" /><path fill-rule="evenodd" class="shp15" d="M96 15.9L99.3 5.6L97 16.2C96.8 16.1 96.7 16.1 96.5 16.1C96.4 15.9 96.2 15.9 96 15.9Z" /><path fill-rule="evenodd" class="shp15" d="M92 15.8C92.9 11.2 94.2 6.7 99.4 5.6C95.7 6.4 94 12 93.2 15.7C92.7 15.7 92.3 15.7 92 15.8Z" /><path fill-rule="evenodd" class="shp15" d="M87.4 17.7C88.6 10.7 91.1 4.9 99.3 5.5C92.7 5 89.8 11.3 88.6 16.9C88.2 17.2 87.8 17.4 87.4 17.7Z" /><path fill-rule="evenodd" class="shp15" d="M82.4 24C82.5 13.5 86.9 3.4 99.3 5.5C88.3 3.6 83.9 13.9 83.5 23C83.4 23.2 83.4 23.3 83.4 23.5L83.3 24C83 24 82.7 24 82.4 24Z" /><path fill-rule="evenodd" class="shp15" d="M99.6 17.4C100.8 13.8 102.1 8 99.3 5.5C103.3 9.1 102.1 13.6 100.6 18.1C100.3 17.8 100 17.6 99.6 17.4Z" /><path fill-rule="evenodd" class="shp15" d="M102.9 20.7C104.7 15.3 105.3 8.4 99.4 5.5C106.8 9.1 106.1 15.4 103.6 22C103.4 21.6 103.1 21.1 102.9 20.7Z" /><path fill-rule="evenodd" class="shp15" d="M104.2 28.6C108.4 20.5 109.7 9.3 99.3 5.5C111.2 9.8 109.9 20.8 104.7 30C104.5 29.9 104.2 29.7 103.9 29.7L104 29.2C104.1 28.9 104.2 28.8 104.2 28.6Z" /><path fill-rule="evenodd" class="shp17" d="M99.3 5.5C88 2.5 82 10 80.4 19C80.2 20.2 80.1 21.4 80 22.7C80 23.7 80 24.6 80 25.6L80 25.6C80.3 25.1 80.7 24.6 81.2 24.4C81.2 13.3 86.3 2.5 99.3 5.5Z" /><path fill-rule="evenodd" class="shp17" d="M99.3 5.5C110.6 8.5 112.1 18 108.9 26.6C108.5 27.7 108 28.9 107.4 30C107 30.9 106.5 31.7 105.9 32.5L105.9 32.5C105.9 31.9 105.8 31.3 105.5 30.9C111.1 21.3 112.1 9.4 99.3 5.5Z" /><path fill-rule="evenodd" class="shp15" d="M81.8 34.1C81.5 32.6 81.4 31 81.8 29.4L81.8 29.4C81.4 29.3 81.1 29.1 80.8 28.9C80.6 28.7 80.4 28.6 80.3 28.4C80.6 30.4 81.1 32.4 81.8 34.1Z" /><path fill-rule="evenodd" class="shp15" d="M102.5 35C102 36.6 101.2 38 100.2 39.1C101.7 37.9 103.1 36.5 104.4 34.9C104.2 35 103.9 35.1 103.7 35.1C103.3 35.1 102.9 35.1 102.5 35L102.5 35Z" /><path fill-rule="evenodd" class="shp9" d="M93.2 32.9C93.2 32.8 93.3 32.7 93.5 32.7C93.7 32.7 93.8 32.8 93.8 33L93.8 33.1C93.7 33.4 93.4 33.6 93.1 33.7C92.8 33.8 92.4 33.8 92 33.6L92 33.6L92 33.6L92 33.6C91.6 33.5 91.2 33.3 91 33.1C90.7 32.8 90.6 32.5 90.6 32.2C90.6 32.1 90.8 32 90.9 32C91 32 91.1 32.2 91.1 32.3C91.1 32.4 91.2 32.5 91.3 32.6C91.5 32.8 91.8 32.9 92.1 33L92.1 33L92.1 33C92.4 33.1 92.8 33.1 93 33.1C93 33 93.2 33 93.2 32.9Z" /><path class="shp13" d="M88.1 27.8C87.27 27.8 86.6 27.13 86.6 26.3C86.6 25.47 87.27 24.8 88.1 24.8C88.93 24.8 89.6 25.47 89.6 26.3C89.6 27.13 88.93 27.8 88.1 27.8Z" /><path class="shp13" d="M98.6 30.7C97.77 30.7 97.1 30.03 97.1 29.2C97.1 28.37 97.77 27.7 98.6 27.7C99.43 27.7 100.1 28.37 100.1 29.2C100.1 30.03 99.43 30.7 98.6 30.7Z" /><path class="shp5" d="M98.7 29.4C98.37 29.4 98.1 29.13 98.1 28.8C98.1 28.47 98.37 28.2 98.7 28.2C99.03 28.2 99.3 28.47 99.3 28.8C99.3 29.13 99.03 29.4 98.7 29.4Z" /><path class="shp5" d="M88.2 26.6C87.87 26.6 87.6 26.33 87.6 26C87.6 25.67 87.87 25.4 88.2 25.4C88.53 25.4 88.8 25.67 88.8 26C88.8 26.33 88.53 26.6 88.2 26.6Z" /><path fill-rule="evenodd" class="shp12" d="M90 21.6C90.1 21.6 90.2 21.8 90.2 21.9C90.2 22 90 22.1 89.9 22.1L86.9 21.3C86.8 21.3 86.7 21.1 86.7 21C86.7 20.9 86.9 20.8 87 20.8L90 21.6Z" /><path fill-rule="evenodd" class="shp13" d="M86.8 25.7C86.9 25.7 87 25.9 87 26C87 26.1 86.8 26.2 86.7 26.2L85.6 25.9C85.5 25.9 85.4 25.7 85.4 25.6C85.4 25.5 85.6 25.4 85.7 25.4L86.8 25.7Z" /><path fill-rule="evenodd" class="shp12" d="M102.4 24.9C102.5 24.9 102.6 25.1 102.6 25.2C102.6 25.3 102.4 25.4 102.3 25.4L99.3 24.6C99.2 24.6 99.1 24.4 99.1 24.3C99.1 24.2 99.3 24.1 99.4 24.1L102.4 24.9Z" /><path fill-rule="evenodd" class="shp13" d="M101.2 29.5C101.3 29.5 101.4 29.7 101.4 29.8C101.4 29.9 101.2 30 101.1 30L100 29.7C99.9 29.7 99.8 29.5 99.8 29.4C99.8 29.3 100 29.2 100.1 29.2L101.2 29.5Z" /><path fill-rule="evenodd" class="shp9" d="M96.5 36.1C96.6 36 96.8 36 96.9 36.1C97 36.2 97 36.4 96.9 36.5C96.1 37.4 95.1 38 94 38.3C92.9 38.6 91.7 38.7 90.6 38.3C89.4 38 88.4 37.4 87.6 36.5C86.8 35.7 86.2 34.6 86 33.5C86 33.4 86.1 33.2 86.2 33.2C86.3 33.2 86.5 33.3 86.5 33.4C86.7 34.4 87.2 35.4 88 36.2C88.7 36.9 89.6 37.5 90.7 37.8C91.8 38.1 92.9 38.1 93.8 37.8C94.8 37.5 95.8 36.9 96.5 36.1Z" /><path fill-rule="evenodd" class="shp4" d="M103.97 29.24L103.9 29.6C103.93 29.48 103.95 29.36 103.97 29.24ZM104.1 28.6C104.6 26.3 104.3 24.1 103.4 22C103.2 21.5 103 21.1 102.7 20.7C102.1 19.7 101.3 18.8 100.4 18.1C100.1 17.9 99.8 17.6 99.5 17.4C98.7 16.9 97.8 16.4 96.9 16.1L96.4 16L96.38 16.1L96.4 16.1L96.2 17C101.58 18.47 104.95 23.86 103.97 29.24L104.1 28.6ZM95.9 16C94.9 15.8 94 15.7 93 15.8C92.6 15.8 92.2 15.8 91.8 15.9C90.6 16.1 89.5 16.4 88.5 17C88 17.2 87.6 17.5 87.2 17.8C85.5 19.1 84.1 20.9 83.4 23.1L83.2 24.1C84.9 18.7 90.7 15.5 96.2 17L96.38 16.1L95.9 16Z" /><path fill-rule="evenodd" class="shp4" d="M102.9 34.7C102.1 37.6 100.2 39.9 97.8 41.4C95.4 42.8 92.4 43.3 89.5 42.5C86.6 41.7 84.3 39.8 82.8 37.4C81.4 35 80.9 32 81.7 29.1L83.2 23.6C84 20.7 85.9 18.3 88.3 16.9C90.7 15.5 93.7 15 96.6 15.8C99.5 16.6 101.9 18.5 103.3 20.9C104.7 23.3 105.2 26.3 104.4 29.2L102.9 34.7ZM103.9 29C104.6 26.2 104.2 23.4 102.8 21.1C101.5 18.8 99.2 17 96.5 16.2C93.7 15.5 90.9 15.9 88.6 17.3C86.3 18.6 84.5 20.9 83.7 23.6L82.2 29.1C81.5 31.9 81.9 34.7 83.3 37C84.6 39.3 86.9 41.1 89.6 41.9C92.4 42.6 95.2 42.2 97.5 40.8C99.8 39.5 101.6 37.3 102.4 34.5L103.9 29Z" /><path fill-rule="evenodd" class="shp4" d="M79.9 28.3C79.5 27.6 79.4 26.8 79.6 26C79.8 25.2 80.3 24.5 81 24.2C81.7 23.8 82.5 23.7 83.3 23.9C83.4 23.9 83.5 24.1 83.5 24.2L82.2 29.2L82.2 29.6C82.1 29.6 81.9 29.7 81.7 29.7C80.9 29.5 80.2 29 79.9 28.3ZM81.6 29.1L81.6 29L82.9 24.3C82.3 24.2 81.8 24.3 81.3 24.6C80.7 24.9 80.3 25.4 80.1 26.1C80 26.8 80.1 27.4 80.4 28C80.7 28.5 81.1 28.9 81.6 29.1Z" /><path fill-rule="evenodd" class="shp4" d="M105.8 30.8C106.2 31.5 106.3 32.3 106.1 33.1C105.9 33.9 105.4 34.5 104.7 34.9C104 35.3 103.2 35.4 102.4 35.2C102.3 35.2 102.2 35 102.2 34.9L102.3 34.7L102.3 34.5L103.6 29.5C103.7 29.4 103.9 29.3 104 29.4C104.8 29.6 105.4 30.1 105.8 30.8ZM105.4 31.1C105.1 30.6 104.7 30.2 104.2 30L102.9 34.7L102.9 34.8C103.5 34.9 104 34.8 104.5 34.5C105.1 34.2 105.5 33.7 105.7 33C105.8 32.3 105.7 31.6 105.4 31.1Z" /><path fill-rule="evenodd" class="shp4" d="M84.7 68.6C84.9 68.6 85 68.7 85 68.9C85 69.1 84.9 69.2 84.7 69.2L80.6 68.9C80.4 68.9 80.3 68.8 80.3 68.6C80.3 68.4 80.4 68.3 80.6 68.3L84.7 68.6Z" /><path fill-rule="evenodd" class="shp18" d="M92 51.3L89.5 48.8L87 51.3L84.1 48.4C85.5 46.7 87.3 45.5 89.5 45.5C91.7 45.5 93.5 46.7 94.9 48.4L92 51.3Z" /><path fill-rule="evenodd" class="shp7" d="M86.9 49.5C87.5 49.6 87.9 50 88.2 50.4C88.5 50.8 88.6 51.4 88.5 51.9C88.5 51.9 88.5 51.9 88.5 52C88.4 52.5 88.1 53 87.6 53.2C87.2 53.5 86.6 53.6 86.1 53.5C85.6 53.4 85.1 53.1 84.8 52.6C84.5 52.2 84.4 51.6 84.5 51.1C84.6 50.6 84.9 50.1 85.4 49.8C85.9 49.5 86.4 49.3 86.9 49.5ZM87.7 50.6C87.5 50.3 87.2 50.1 86.8 50C86.4 49.9 86 50 85.7 50.2C85.4 50.4 85.1 50.7 85.1 51.1C85 51.5 85.1 51.9 85.3 52.2C85.5 52.5 85.8 52.8 86.2 52.8C86.6 52.9 87 52.8 87.3 52.6C87.6 52.4 87.8 52.1 87.9 51.7C88 51.3 87.9 50.9 87.7 50.6Z" /><path fill-rule="evenodd" class="shp18" d="M92 51.3L89.5 48.8L87 51.3L84.1 48.4C85.5 46.7 87.3 45.5 89.5 45.5C91.7 45.5 93.5 46.7 94.9 48.4L92 51.3Z" /><path fill-rule="evenodd" class="shp7" d="M92.8 47.4C93.3 47.8 93.5 48.3 93.5 48.8C93.5 49.3 93.4 49.8 93.1 50.3C92.8 50.7 92.3 51 91.8 51C91.3 51 90.8 50.9 90.4 50.6C90 50.3 89.7 49.8 89.7 49.3C89.7 48.8 89.8 48.3 90.1 47.9C90.4 47.5 90.9 47.2 91.4 47.2C91.8 47 92.3 47.1 92.8 47.4ZM92.4 47.9C92.1 47.6 91.7 47.5 91.3 47.6C90.9 47.6 90.6 47.8 90.3 48.1C90 48.4 89.9 48.8 90 49.2C90 49.6 90.2 49.9 90.5 50.2C90.8 50.5 91.2 50.6 91.6 50.5C92 50.5 92.3 50.3 92.6 50C92.9 49.7 93 49.3 92.9 48.9C92.9 48.5 92.7 48.1 92.4 47.9Z" /><path fill-rule="evenodd" class="shp4" d="M124.6 46.4L122.2 49.2C122.1 49.3 122.1 49.5 122.2 49.6C122.3 49.7 122.5 49.7 122.6 49.6L125 46.8C125.1 46.7 125.1 46.5 125 46.4C124.9 46.3 124.7 46.3 124.6 46.4ZM120.1 47.4C120 47.5 120 47.7 120.1 47.8C120.2 47.9 120.4 47.9 120.5 47.8L123 44.8C123.1 44.7 123.1 44.5 123 44.4C122.8 44.3 122.7 44.3 122.6 44.4L120.1 47.4ZM123.6 45.3L121.1 48.3C121 48.4 121 48.6 121.1 48.7C121.2 48.8 121.4 48.8 121.5 48.7L124 45.7C124.1 45.6 124.1 45.4 124 45.3C123.9 45.2 123.7 45.2 123.6 45.3Z" /><path fill-rule="evenodd" class="shp6" d="M84.1 49.9C85.9 47.1 87.8 45.4 89.5 45.4C91.2 45.4 93.1 47.1 94.9 49.9L92 52.8L89.5 50.3L87 52.8L84.1 49.9Z" /><path fill-rule="evenodd" class="shp5" d="M99.7 73.3C98.9 57.5 94.6 45.4 89.5 45.4C84.4 45.4 80.1 57.5 79.3 73.3L99.7 73.3Z" /><path fill-rule="evenodd" class="shp7" d="M99.4 73.3C99 66.3 98 60.1 96.5 55.3C94.7 49.4 92.2 45.7 89.5 45.7C86.8 45.7 84.3 49.4 82.5 55.3C81 60.1 80 66.3 79.6 73.3L79 73.3C79.4 66.3 80.4 59.9 81.9 55.1C83.8 48.9 86.5 45.1 89.5 45.1C92.5 45.1 95.2 48.9 97.1 55.1C98.6 59.9 99.6 66.3 100 73.3L99.4 73.3Z" /><path fill-rule="evenodd" class="shp6" d="M94.8 50.1C93.3 47.2 91.5 45.5 89.5 45.5C87.6 45.5 85.8 47.2 84.2 50.1L86.9 52.8L89.4 50.3L91.9 52.8L94.8 50.1Z" /><path fill-rule="evenodd" class="shp7" d="M99.4 73.3C99 66.3 98 60.1 96.5 55.3C94.7 49.4 92.2 45.7 89.5 45.7C86.8 45.7 84.3 49.4 82.5 55.3C81 60.1 80 66.3 79.6 73.3L79 73.3C79.4 66.3 80.4 59.9 81.9 55.1C83.8 48.9 86.5 45.1 89.5 45.1C92.5 45.1 95.2 48.9 97.1 55.1C98.6 59.9 99.6 66.3 100 73.3L99.4 73.3Z" /><path class="shp10" d="M80.3 73.3L85.7 47.6L86.8 47.6L86.8 55.5L92.2 55.5L92.2 47.6L93.3 47.6L94 49.6L94.2 50.6L99 73.3L98.7 73.3L98.4 73.3L80.3 73.3Z" /><path fill-rule="evenodd" class="shp11" d="M80.6 73.3L85.9 47.9L86.5 47.9L86.5 55.5L86.5 55.5C86.5 55.7 86.6 55.8 86.8 55.8L92.2 55.8L92.2 55.8C92.4 55.8 92.5 55.7 92.5 55.5L92.5 47.9L93.1 47.9L93.8 51.1L94.3 50.6L93.7 47.6C93.7 47.5 93.6 47.4 93.4 47.4L93.4 47.4L92.3 47.4C92.1 47.4 92 47.5 92 47.7L92 47.7L92 55.3L87.1 55.3L87.1 47.7C87.1 47.5 87 47.4 86.8 47.4L86.8 47.4L85.7 47.4C85.6 47.4 85.4 47.5 85.4 47.6L80 73.3L80.6 73.3Z" /><path fill-rule="evenodd" class="shp11" d="M85 50.8L86.8 52.6L86.8 47.6L85.7 47.6L85 50.8ZM94 50.8L93.3 47.6L92.2 47.6L92.2 52.6L94 50.8Z" /><path fill-rule="evenodd" class="shp5" d="M87 51.3L89.5 48.8L92 51.3L94.9 48.4C93.5 46.7 91.7 45.5 89.5 45.5C87.3 45.5 85.5 46.7 84.1 48.4L87 51.3Z" /><path fill-rule="evenodd" class="shp7" d="M89.5 45.1C90.6 45.1 91.7 45.4 92.6 46C93.5 46.5 94.4 47.3 95.1 48.2C95.2 48.3 95.2 48.5 95.1 48.6L92.2 51.5C92.1 51.6 91.9 51.6 91.8 51.5L89.8 49.5L89.8 55.3L89.2 55.3L89.2 49.5L87.2 51.5C87.1 51.6 86.9 51.6 86.8 51.5L83.9 48.6C83.8 48.5 83.8 48.3 83.9 48.2C84.6 47.3 85.5 46.6 86.4 46C87.3 45.5 88.3 45.2 89.4 45.1C89.5 45.1 89.5 45.1 89.5 45.1ZM86.6 46.5C85.8 47 85.1 47.6 84.4 48.4L86.9 50.9L89.1 48.7L89.1 45.7C88.23 45.72 87.37 46.02 86.6 46.5ZM89.8 48.6L92 50.8L94.5 48.3C93.9 47.5 93.1 46.9 92.3 46.4C91.5 45.9 90.7 45.7 89.7 45.6L89.7 48.6L89.8 48.6ZM89.1 45.7L89.1 45.7C89.13 45.7 89.17 45.7 89.2 45.7L89.1 45.7Z" /></g><g ><path class="shp19" d="M34.8 106C34.8 106.2 34.7 106.4 34.6 106.5C34.5 106.6 34.3 106.7 34.1 106.7C33.9 106.7 33.7 106.6 33.6 106.5C33.5 106.4 33.4 106.2 33.4 106L33.4 102.3C33.4 102.1 33.5 101.9 33.6 101.8C33.7 101.7 33.9 101.6 34.1 101.6L37.1 101.6C37.3 101.6 37.5 101.6 37.6 101.7C37.7 101.8 37.8 102 37.8 102.2L37.8 105.9C37.8 106.1 37.7 106.3 37.6 106.4C37.5 106.5 37.3 106.6 37.1 106.6C36.9 106.6 36.7 106.5 36.6 106.4C36.5 106.3 36.4 106.1 36.4 105.9L36.4 103L34.7 103L34.7 106L34.8 106Z" /><path fill-rule="evenodd" class="shp19" d="M38.7 102.4C38.7 102.2 38.8 102 38.9 101.9C39 101.8 39.2 101.7 39.4 101.7C39.6 101.7 39.7 101.7 39.8 101.8C39.9 101.9 40 102 40 102.2C40.1 102 40.3 101.8 40.5 101.7C40.7 101.6 41 101.5 41.2 101.5C41.6 101.5 41.9 101.6 42.1 101.7C42.4 101.9 42.6 102.1 42.8 102.3C43 102.5 43.1 102.8 43.2 103.2C43.3 103.5 43.3 103.8 43.3 104.2C43.3 104.5 43.2 104.8 43.1 105.1C43 105.4 42.8 105.7 42.7 105.9C42.5 106.1 42.3 106.3 42 106.5C41.7 106.6 41.4 106.7 41.1 106.7C40.9 106.7 40.7 106.7 40.5 106.6C40.3 106.5 40.1 106.4 39.9 106.2L39.9 107.8C39.9 108 39.8 108.2 39.7 108.3C39.6 108.4 39.4 108.5 39.2 108.5C39 108.5 38.8 108.4 38.7 108.3C38.6 108.2 38.5 108 38.5 107.8L38.5 102.4L38.7 102.4ZM40 104.2C40 104.4 40 104.5 40.1 104.7C40.1 104.9 40.2 105 40.3 105.2C40.4 105.3 40.5 105.4 40.6 105.5C40.7 105.6 40.9 105.6 41.1 105.6C41.3 105.6 41.4 105.6 41.6 105.5C41.7 105.4 41.8 105.3 41.9 105.2C42 105.1 42.1 104.9 42.1 104.8C42.1 104.6 42.2 104.5 42.2 104.3C42.2 104.1 42.2 104 42.1 103.8C42.1 103.6 42 103.5 41.9 103.4C41.8 103.3 41.7 103.2 41.6 103.1C41.5 103 41.3 103 41.1 103C40.9 103 40.8 103 40.6 103.1C40.5 103.2 40.4 103.3 40.3 103.4C40.2 103.5 40.1 103.7 40.1 103.8C40 103.8 40 104 40 104.2Z" /><path fill-rule="evenodd" class="shp19" d="M46.3 101.6C46.7 101.6 47 101.7 47.3 101.8C47.6 101.9 47.8 102.1 48.1 102.4C48.3 102.6 48.5 102.9 48.6 103.2C48.7 103.5 48.8 103.8 48.8 104.2C48.8 104.5 48.7 104.9 48.6 105.2C48.5 105.5 48.3 105.8 48.1 106C47.9 106.2 47.6 106.4 47.3 106.6C47 106.7 46.7 106.8 46.3 106.8C45.9 106.8 45.6 106.7 45.3 106.6C45 106.5 44.8 106.3 44.5 106C44.3 105.8 44.1 105.5 44 105.2C43.9 104.9 43.8 104.6 43.8 104.2C43.8 103.9 43.9 103.5 44 103.2C44.1 102.9 44.3 102.6 44.5 102.4C44.7 102.2 45 102 45.3 101.8C45.6 101.7 45.9 101.6 46.3 101.6ZM46.3 102.8C46.1 102.8 46 102.8 45.8 102.9C45.7 103 45.6 103.1 45.5 103.2C45.4 103.3 45.3 103.5 45.3 103.6C45.3 103.8 45.2 103.9 45.2 104.1C45.2 104.3 45.2 104.4 45.3 104.6C45.3 104.8 45.4 104.9 45.5 105C45.6 105.1 45.7 105.2 45.8 105.3C45.9 105.4 46.1 105.4 46.3 105.4C46.5 105.4 46.6 105.4 46.8 105.3C46.9 105.2 47 105.1 47.1 105C47.2 104.9 47.3 104.7 47.3 104.6C47.3 104.4 47.4 104.3 47.4 104.1C47.4 103.9 47.4 103.8 47.3 103.6C47.3 103.4 47.2 103.3 47.1 103.2C47 103.1 46.9 103 46.8 102.9C46.6 102.9 46.4 102.8 46.3 102.8Z" /><path class="shp19" d="M53.1 102.5C53.1 102.6 53.1 102.6 53.1 102.7C53.1 102.8 53 102.8 53 102.9C53 103 52.9 103 52.8 103.1C52.7 103.1 52.7 103.2 52.6 103.2C52.5 103.2 52.4 103.2 52.3 103.2C52.2 103.2 52.1 103.1 52.1 103.1C52 103.1 51.9 103 51.8 103C51.7 103 51.6 103 51.5 103C51.3 103 51.1 103 51 103.1C50.9 103.2 50.7 103.3 50.7 103.4C50.6 103.5 50.5 103.7 50.5 103.8C50.5 104 50.4 104.1 50.4 104.3C50.4 104.5 50.4 104.6 50.5 104.8C50.6 105 50.6 105.1 50.7 105.2C50.8 105.3 50.9 105.4 51.1 105.5C51.2 105.6 51.4 105.6 51.6 105.6C51.7 105.6 51.8 105.6 51.9 105.6C52 105.6 52.1 105.5 52.2 105.5C52.3 105.5 52.4 105.4 52.5 105.4C52.6 105.4 52.6 105.4 52.7 105.4C52.9 105.4 53 105.5 53.1 105.6C53.2 105.7 53.3 105.9 53.3 106C53.3 106.2 53.2 106.3 53.1 106.4C53 106.5 52.8 106.6 52.6 106.7C52.4 106.8 52.2 106.8 52.1 106.9C51.9 106.9 51.8 106.9 51.6 106.9C51.2 106.9 50.9 106.8 50.6 106.7C50.3 106.6 50.1 106.4 49.8 106.1C49.6 105.9 49.4 105.6 49.3 105.3C49.2 105 49.1 104.7 49.1 104.3C49.1 104 49.2 103.6 49.3 103.3C49.4 103 49.6 102.7 49.8 102.5C50 102.3 50.3 102.1 50.6 101.9C50.9 101.8 51.2 101.7 51.6 101.7C51.7 101.7 51.9 101.7 52.1 101.7C52.3 101.7 52.5 101.8 52.6 101.8C52.8 101.9 52.9 102 53 102.1C53 102.2 53.1 102.3 53.1 102.5Z" /><path class="shp19" d="M53.7 103C53.5 103 53.3 103 53.2 102.9C53.1 102.8 53 102.6 53 102.4C53 102.2 53.1 102 53.2 101.9C53.3 101.8 53.5 101.8 53.7 101.8L56.6 101.8C56.8 101.8 57 101.8 57.1 101.9C57.2 102 57.3 102.2 57.3 102.4C57.3 102.6 57.2 102.8 57.1 102.9C57 103 56.8 103 56.6 103L55.9 103L55.9 106.1C55.9 106.3 55.8 106.5 55.7 106.6C55.6 106.7 55.4 106.8 55.2 106.8C55 106.8 54.8 106.7 54.7 106.6C54.6 106.5 54.5 106.3 54.5 106.1L54.5 103L53.7 103Z" /><path class="shp19" d="M58.2 99.6C58.3 99.6 58.4 99.6 58.5 99.7C58.6 99.7 58.7 99.8 58.7 99.9C58.7 100 58.8 100 58.9 100.1C58.9 100.2 59 100.3 59 100.4C59 100.6 58.9 100.8 58.8 100.9C58.7 101.1 58.5 101.1 58.3 101.1C58.2 101.1 58.1 101.1 58 101C57.9 101 57.8 100.9 57.8 100.8C57.7 100.7 57.7 100.7 57.6 100.6C57.6 100.5 57.5 100.4 57.5 100.3C57.5 100.2 57.5 100.1 57.6 100C57.6 99.9 57.7 99.8 57.8 99.8C57.9 99.7 58 99.7 58 99.6C58 99.7 58.1 99.6 58.2 99.6ZM57.5 102.4C57.5 102.2 57.6 102 57.7 101.9C57.8 101.8 58 101.7 58.2 101.7C58.4 101.7 58.6 101.8 58.7 101.9C58.8 102 58.9 102.2 58.9 102.4L58.9 106C58.9 106.2 58.8 106.4 58.7 106.5C58.6 106.6 58.4 106.7 58.2 106.7C58 106.7 57.8 106.6 57.7 106.5C57.6 106.4 57.5 106.2 57.5 106L57.5 102.4Z" /><path fill-rule="evenodd" class="shp19" d="M59.6 102.4C59.6 102.2 59.7 102 59.8 101.9C59.9 101.8 60.1 101.7 60.3 101.7C60.5 101.7 60.6 101.7 60.7 101.8C60.8 101.9 60.9 102 60.9 102.2C61 102 61.2 101.8 61.4 101.7C61.6 101.6 61.9 101.5 62.1 101.5C62.5 101.5 62.8 101.6 63 101.7C63.3 101.9 63.5 102.1 63.7 102.3C63.9 102.5 64 102.8 64.1 103.2C64.2 103.5 64.2 103.8 64.2 104.2C64.2 104.5 64.1 104.8 64 105.1C63.9 105.4 63.7 105.7 63.6 105.9C63.4 106.1 63.2 106.3 62.9 106.5C62.6 106.6 62.3 106.7 62 106.7C61.8 106.7 61.6 106.7 61.4 106.6C61.2 106.5 61 106.4 60.8 106.2L60.8 107.8C60.8 108 60.7 108.2 60.6 108.3C60.5 108.4 60.3 108.5 60.1 108.5C59.9 108.5 59.7 108.4 59.6 108.3C59.5 108.2 59.4 108 59.4 107.8L59.4 102.4L59.6 102.4ZM60.9 104.2C60.9 104.4 60.9 104.5 61 104.7C61 104.9 61.1 105 61.2 105.2C61.3 105.3 61.4 105.4 61.5 105.5C61.6 105.6 61.8 105.6 62 105.6C62.2 105.6 62.3 105.6 62.5 105.5C62.6 105.4 62.7 105.3 62.8 105.2C62.9 105.1 63 104.9 63 104.8C63 104.6 63.1 104.5 63.1 104.3C63.1 104.1 63.1 104 63 103.8C63 103.6 62.9 103.5 62.8 103.4C62.7 103.3 62.6 103.2 62.5 103.1C62.4 103 62.2 103 62 103C61.8 103 61.7 103 61.5 103.1C61.4 103.2 61.3 103.3 61.2 103.4C61.1 103.5 61 103.7 61 103.8C61 103.8 60.9 104 60.9 104.2Z" /><path class="shp19" d="M68.8 106C68.8 106.2 68.7 106.4 68.6 106.5C68.5 106.6 68.3 106.7 68.1 106.7C67.9 106.7 67.7 106.6 67.6 106.5C67.5 106.4 67.4 106.2 67.4 106L67.4 102.3C67.4 102.1 67.5 101.9 67.6 101.8C67.7 101.7 67.9 101.6 68.1 101.6L71.1 101.6C71.3 101.6 71.5 101.6 71.6 101.7C71.7 101.8 71.8 102 71.8 102.2L71.8 105.9C71.8 106.1 71.7 106.3 71.6 106.4C71.5 106.5 71.3 106.6 71.1 106.6C70.9 106.6 70.7 106.5 70.6 106.4C70.5 106.3 70.4 106.1 70.4 105.9L70.4 103L68.7 103L68.7 106L68.8 106Z" /><path fill-rule="evenodd" class="shp19" d="M74.9 101.6C75.3 101.6 75.6 101.7 75.9 101.8C76.2 101.9 76.4 102.1 76.7 102.4C76.9 102.6 77.1 102.9 77.2 103.2C77.3 103.5 77.4 103.8 77.4 104.2C77.4 104.5 77.3 104.9 77.2 105.2C77.1 105.5 76.9 105.8 76.7 106C76.5 106.2 76.2 106.4 75.9 106.6C75.6 106.7 75.3 106.8 74.9 106.8C74.5 106.8 74.2 106.7 73.9 106.6C73.6 106.5 73.4 106.3 73.1 106C72.9 105.8 72.7 105.5 72.6 105.2C72.5 104.9 72.4 104.6 72.4 104.2C72.4 103.9 72.5 103.5 72.6 103.2C72.7 102.9 72.9 102.6 73.1 102.4C73.3 102.2 73.6 102 73.9 101.8C74.2 101.7 74.5 101.6 74.9 101.6ZM74.9 102.8C74.7 102.8 74.6 102.8 74.4 102.9C74.3 103 74.2 103.1 74.1 103.2C74 103.3 73.9 103.5 73.9 103.6C73.9 103.8 73.8 103.9 73.8 104.1C73.8 104.3 73.8 104.4 73.9 104.6C73.9 104.8 74 104.9 74.1 105C74.2 105.1 74.3 105.2 74.4 105.3C74.5 105.4 74.7 105.4 74.9 105.4C75.1 105.4 75.2 105.4 75.4 105.3C75.5 105.2 75.6 105.1 75.7 105C75.8 104.9 75.9 104.7 75.9 104.6C75.9 104.4 76 104.3 76 104.1C76 103.9 76 103.8 75.9 103.6C75.9 103.4 75.8 103.3 75.7 103.2C75.6 103.1 75.5 103 75.4 102.9C75.2 102.9 75.1 102.8 74.9 102.8Z" /><path class="shp19" d="M81.7 102.5C81.7 102.6 81.7 102.6 81.7 102.7C81.7 102.8 81.6 102.8 81.6 102.9C81.6 103 81.5 103 81.4 103.1C81.3 103.1 81.3 103.2 81.2 103.2C81.1 103.2 81 103.2 80.9 103.2C80.8 103.2 80.7 103.1 80.7 103.1C80.6 103.1 80.5 103 80.4 103C80.3 103 80.2 103 80.1 103C79.9 103 79.7 103 79.6 103.1C79.5 103.2 79.3 103.3 79.3 103.4C79.2 103.5 79.1 103.7 79.1 103.8C79.1 104 79 104.1 79 104.3C79 104.5 79 104.6 79.1 104.8C79.2 105 79.2 105.1 79.3 105.2C79.4 105.3 79.5 105.4 79.7 105.5C79.8 105.6 80 105.6 80.2 105.6C80.3 105.6 80.4 105.6 80.5 105.6C80.6 105.6 80.7 105.5 80.8 105.5C80.9 105.5 81 105.4 81.1 105.4C81.2 105.4 81.2 105.4 81.3 105.4C81.5 105.4 81.6 105.5 81.7 105.6C81.8 105.7 81.9 105.9 81.9 106C81.9 106.2 81.8 106.3 81.7 106.4C81.6 106.5 81.4 106.6 81.2 106.7C81 106.8 80.8 106.8 80.7 106.9C80.5 106.9 80.4 106.9 80.2 106.9C79.8 106.9 79.5 106.8 79.2 106.7C78.9 106.6 78.7 106.4 78.4 106.1C78.2 105.9 78 105.6 77.9 105.3C77.8 105 77.7 104.7 77.7 104.3C77.7 104 77.8 103.6 77.9 103.3C78 103 78.2 102.7 78.4 102.5C78.6 102.3 78.9 102.1 79.2 101.9C79.5 101.8 79.8 101.7 80.2 101.7C80.3 101.7 80.5 101.7 80.7 101.7C80.9 101.7 81.1 101.8 81.2 101.8C81.4 101.9 81.5 102 81.6 102.1C81.7 102.2 81.7 102.3 81.7 102.5Z" /><path class="shp19" d="M84 105C83.9 105.5 83.7 106 83.5 106.3C83.2 106.6 82.8 106.7 82.4 106.7C82.3 106.7 82.2 106.6 82 106.5C81.9 106.4 81.8 106.2 81.8 106.1C81.8 105.9 81.8 105.8 81.9 105.8C82 105.7 82 105.7 82.1 105.6C82.3 105.5 82.4 105.4 82.5 105.2C82.6 105 82.6 104.8 82.7 104.5L83.1 102.3C83.2 101.9 83.4 101.7 83.8 101.7L86.1 101.7C86.3 101.7 86.5 101.7 86.6 101.8C86.7 101.9 86.8 102.1 86.8 102.3L86.8 106C86.8 106.2 86.7 106.4 86.6 106.5C86.5 106.6 86.3 106.7 86.1 106.7C85.9 106.7 85.7 106.6 85.6 106.5C85.5 106.4 85.4 106.2 85.4 106L85.4 103L84.3 103L84 105Z" /><path class="shp19" d="M89.4 104.6L89.4 104.6L90.3 102.3C90.4 102.1 90.5 102 90.6 101.9C90.7 101.8 90.8 101.7 91 101.7C91.2 101.7 91.4 101.8 91.5 101.9C91.6 102 91.7 102.2 91.7 102.4C91.7 102.5 91.7 102.6 91.6 102.7C91.6 102.8 91.5 102.9 91.5 103L89.6 107.5C89.4 108 89.2 108.3 88.9 108.5C88.6 108.7 88.3 108.8 87.8 108.8C87.6 108.8 87.4 108.7 87.3 108.6C87.2 108.5 87.1 108.3 87.1 108.2C87.1 108 87.1 107.9 87.2 107.8C87.3 107.7 87.4 107.7 87.5 107.6C87.6 107.6 87.7 107.5 87.9 107.4C88.1 107.3 88.1 107.2 88.2 107L88.5 106.2L87.2 103C87.1 102.8 87.1 102.7 87 102.5C86.9 102.4 86.9 102.2 86.9 102.2C86.9 102 87 101.8 87.1 101.7C87.2 101.6 87.4 101.5 87.6 101.5C87.8 101.5 87.9 101.5 88 101.6C88.1 101.7 88.2 101.8 88.3 102L89.4 104.6Z" /><path class="shp19" d="M93.4 106C93.4 106.2 93.3 106.4 93.2 106.5C93.1 106.6 92.9 106.7 92.7 106.7C92.5 106.7 92.3 106.6 92.2 106.5C92.1 106.4 92 106.2 92 106L92 102.3C92 102.1 92.1 101.9 92.2 101.8C92.3 101.7 92.5 101.7 92.7 101.7L94.5 101.7C94.7 101.7 94.9 101.7 95 101.8C95.1 101.9 95.2 102.1 95.2 102.3C95.2 102.5 95.1 102.7 95 102.8C94.9 102.9 94.7 102.9 94.5 102.9L93.3 102.9L93.3 106L93.4 106Z" /></g><path class="shp20" d="M40.5 17.4C40.5 16.7 42 16.1 43.8 16.1" /><path class="shp20" d="M57.6 17.4C57.6 16.7 56.1 16.1 54.3 16.1" /></g></svg>